<?xml version="1.0" standalone="no"?>
<!DOCTYPE svg PUBLIC "-//W3C//DTD SVG 20010904//EN"
 "http://www.w3.org/TR/2001/REC-SVG-20010904/DTD/svg10.dtd">
<svg version="1.0" xmlns="http://www.w3.org/2000/svg"
 width="460.000000pt" height="480.000000pt" viewBox="0 0 460.000000 480.000000"
 preserveAspectRatio="xMidYMid meet">

<g transform="translate(0.000000,480.000000) scale(0.100000,-0.100000)"
fill="#000000" stroke="none">
<path d="M1330 4030 c-537 -65 -954 -473 -1031 -1009 -27 -187 4 -439 81 -656
210 -592 830 -1252 1757 -1870 l163 -108 162 108 c928 618 1548 1278 1758
1870 96 272 116 567 53 795 -116 423 -436 737 -858 844 -94 23 -262 39 -350
31 -274 -23 -491 -113 -702 -292 l-63 -54 -63 54 c-169 143 -354 235 -548 272
-107 20 -263 26 -359 15z"/>
</g>
</svg>
