<?xml version="1.0" standalone="no"?>
<!DOCTYPE svg PUBLIC "-//W3C//DTD SVG 20010904//EN"
 "http://www.w3.org/TR/2001/REC-SVG-20010904/DTD/svg10.dtd">
<svg version="1.0" xmlns="http://www.w3.org/2000/svg"
 width="460.000000pt" height="480.000000pt" viewBox="0 0 460.000000 480.000000"
 preserveAspectRatio="xMidYMid meet">

<g transform="translate(0.000000,480.000000) scale(0.100000,-0.100000)"
fill="#000000" stroke="none">
<path d="M2189 4391 c-31 -10 -76 -32 -100 -49 -60 -41 -1721 -1708 -1747
-1752 -120 -206 -18 -470 210 -542 33 -10 84 -18 114 -18 l53 0 3 -653 c3
-649 3 -652 25 -707 46 -111 142 -207 253 -252 53 -22 68 -23 437 -26 413 -3
425 -2 455 51 10 17 14 146 18 542 5 517 5 520 28 562 12 24 41 55 64 70 l41
28 246 3 c243 3 247 3 291 -21 30 -16 55 -40 75 -72 l30 -48 3 -520 c3 -569 1
-550 63 -583 43 -22 719 -21 804 2 108 27 194 90 256 187 68 105 69 117 69
816 l0 621 54 0 c72 0 170 32 228 75 85 62 148 189 148 295 0 56 -28 151 -60
200 -36 56 -1712 1729 -1760 1758 -89 52 -203 64 -301 33z"/>
</g>
</svg>
