<?xml version="1.0" standalone="no"?>
<!DOCTYPE svg PUBLIC "-//W3C//DTD SVG 20010904//EN"
 "http://www.w3.org/TR/2001/REC-SVG-20010904/DTD/svg10.dtd">
<svg version="1.0" xmlns="http://www.w3.org/2000/svg"
 width="460.000000pt" height="480.000000pt" viewBox="0 0 460.000000 480.000000"
 preserveAspectRatio="xMidYMid meet">

<g transform="translate(0.000000,480.000000) scale(0.100000,-0.100000)"
fill="#000000" stroke="none">
<path d="M509 4414 c-66 -20 -137 -72 -176 -128 -67 -98 -63 13 -63 -1716 0
-1716 -4 -1613 59 -1712 59 -93 75 -100 685 -304 551 -184 560 -186 628 -182
49 4 86 14 132 37 74 36 118 82 155 161 23 48 26 70 29 183 l4 127 287 0 c225
0 299 3 346 15 169 44 306 175 361 345 15 48 18 105 22 436 4 410 1 440 -45
495 -74 87 -214 74 -270 -26 -22 -40 -23 -45 -23 -415 0 -419 -2 -432 -71
-481 -34 -24 -36 -24 -321 -27 l-288 -3 0 1295 c0 1169 -2 1300 -16 1343 -33
98 -108 176 -207 215 -41 16 -28 17 367 17 403 1 409 1 448 -21 21 -12 49 -38
61 -58 21 -34 22 -47 27 -347 5 -296 6 -313 26 -340 36 -49 82 -73 136 -73 66
0 114 24 146 73 l27 41 0 325 c0 315 -1 328 -23 390 -44 121 -123 218 -235
285 -114 68 -86 66 -1179 65 -822 0 -991 -3 -1029 -15z"/>
<path d="M3399 3557 c-83 -56 -92 -100 -87 -430 l3 -217 -346 0 c-368 0 -392
-3 -443 -49 -82 -75 -70 -210 24 -265 33 -20 55 -21 397 -26 l363 -5 2 -275
c3 -267 4 -276 26 -312 42 -67 118 -98 194 -78 38 10 86 54 401 368 231 231
365 371 377 398 22 45 25 88 10 131 -12 32 -720 747 -762 769 -42 22 -119 18
-159 -9z"/>
</g>
</svg>
