<?xml version="1.0" standalone="no"?>
<!DOCTYPE svg PUBLIC "-//W3C//DTD SVG 20010904//EN"
 "http://www.w3.org/TR/2001/REC-SVG-20010904/DTD/svg10.dtd">
<svg version="1.0" xmlns="http://www.w3.org/2000/svg"
 width="460.000000pt" height="480.000000pt" viewBox="0 0 460.000000 480.000000"
 preserveAspectRatio="xMidYMid meet">

<g transform="translate(0.000000,480.000000) scale(0.100000,-0.100000)"
fill="#000000" stroke="none">
<path d="M895 4130 c-132 -18 -238 -73 -327 -169 -67 -72 -103 -139 -128 -237
-19 -74 -20 -113 -20 -1024 0 -628 4 -966 11 -1006 29 -160 145 -313 294 -384
95 -46 169 -60 328 -60 l117 0 0 -240 c0 -261 5 -291 53 -323 15 -9 44 -17 67
-17 44 0 38 -4 539 383 l254 197 791 0 c482 0 816 4 856 10 210 33 401 222
439 434 7 40 11 378 11 1006 0 911 -1 950 -20 1024 -11 43 -32 101 -47 129
-39 73 -155 187 -224 221 -133 64 -26 60 -1549 62 -762 1 -1412 -2 -1445 -6z"/>
</g>
</svg>
