<?xml version="1.0" standalone="no"?>
<!DOCTYPE svg PUBLIC "-//W3C//DTD SVG 20010904//EN"
 "http://www.w3.org/TR/2001/REC-SVG-20010904/DTD/svg10.dtd">
<svg version="1.0" xmlns="http://www.w3.org/2000/svg"
 width="460.000000pt" height="480.000000pt" viewBox="0 0 460.000000 480.000000"
 preserveAspectRatio="xMidYMid meet">

<g transform="translate(0.000000,480.000000) scale(0.100000,-0.100000)"
fill="#000000" stroke="none">
<path d="M2275 4591 c-65 -29 -1066 -613 -1092 -639 l-33 -30 0 -641 c0 -439
3 -648 11 -664 6 -13 38 -40 72 -60 699 -405 1056 -607 1076 -607 22 0 153 71
406 220 44 26 220 127 390 225 171 97 322 190 338 207 l27 29 -2 649 c-3 634
-3 650 -23 669 -11 11 -103 67 -204 126 l-183 106 -302 -174 c-165 -95 -426
-245 -578 -333 l-277 -159 -3 -250 c-3 -241 -4 -250 -23 -253 -11 -1 -85 35
-165 81 l-145 84 -3 264 -2 264 572 330 c315 182 572 334 573 339 0 13 -352
216 -384 221 -14 3 -35 1 -46 -4z"/>
<path d="M954 3471 c-18 -11 -159 -92 -315 -181 -156 -90 -296 -175 -311 -191
l-28 -29 0 -645 0 -644 23 -25 c12 -14 105 -73 207 -132 102 -58 230 -132 285
-164 440 -256 614 -353 640 -356 23 -4 54 9 140 60 l110 64 0 443 0 443 -300
174 c-165 95 -312 185 -327 199 l-28 26 -2 -174 c-3 -156 -5 -174 -21 -177
-17 -3 -295 151 -309 172 -4 6 -8 126 -8 266 l0 255 145 83 145 84 0 234 c0
129 -3 234 -7 234 -5 0 -22 -9 -39 -19z"/>
<path d="M3183 2097 l-573 -332 -2 -250 c-3 -230 -4 -250 -21 -253 -10 -2 -85
35 -167 83 l-150 87 0 189 c0 177 -1 189 -18 189 -10 0 -101 47 -202 105 -100
58 -184 105 -186 105 -2 0 -4 -257 -4 -571 l0 -571 33 -30 c17 -17 271 -169
562 -337 421 -242 537 -305 565 -305 27 0 89 32 260 131 124 72 367 213 540
313 173 100 324 190 335 201 20 19 20 35 23 668 2 633 2 648 -17 673 -19 23
-380 239 -398 237 -4 0 -266 -150 -580 -332z"/>
</g>
</svg>
