<?xml version="1.0" standalone="no"?>
<!DOCTYPE svg PUBLIC "-//W3C//DTD SVG 20010904//EN"
 "http://www.w3.org/TR/2001/REC-SVG-20010904/DTD/svg10.dtd">
<svg version="1.0" xmlns="http://www.w3.org/2000/svg"
 width="460.000000pt" height="480.000000pt" viewBox="0 0 460.000000 480.000000"
 preserveAspectRatio="xMidYMid meet">

<g transform="translate(0.000000,480.000000) scale(0.100000,-0.100000)"
fill="#000000" stroke="none">
<path d="M2000 4441 c-205 -44 -384 -139 -530 -281 -369 -360 -424 -929 -130
-1354 64 -93 197 -221 291 -282 427 -277 991 -209 1339 162 254 270 346 642
249 1004 -30 112 -117 282 -193 377 -244 302 -656 452 -1026 374z"/>
<path d="M3279 2327 c-56 -37 -69 -76 -69 -204 l0 -111 -47 -12 c-27 -6 -77
-26 -113 -45 l-65 -33 -86 83 c-66 64 -96 85 -124 91 -78 14 -157 -36 -171
-111 -11 -62 4 -94 91 -184 l83 -86 -33 -65 c-19 -36 -39 -86 -45 -112 l-12
-48 -111 0 c-87 0 -120 -4 -147 -18 -76 -38 -103 -134 -57 -203 37 -56 76 -69
203 -69 l112 0 12 -47 c6 -27 27 -77 46 -112 l34 -65 -84 -86 c-89 -91 -105
-124 -91 -190 9 -42 66 -97 109 -106 59 -10 105 13 192 97 l80 79 55 -29 c30
-16 80 -37 112 -47 l57 -18 0 -110 c0 -127 13 -166 69 -203 61 -41 148 -23
192 38 22 31 24 46 27 155 l4 121 56 17 c32 10 81 31 111 47 l54 29 88 -84
c102 -99 132 -111 208 -80 37 16 50 28 69 66 39 78 27 113 -74 218 l-84 87 29
54 c16 30 37 79 47 111 l17 56 121 4 c109 3 124 5 155 27 61 44 79 131 38 192
-37 56 -76 69 -203 69 l-110 0 -18 58 c-10 31 -31 82 -47 112 l-29 54 74 76
c86 86 111 133 101 192 -9 49 -61 105 -109 113 -65 13 -96 -3 -187 -91 l-85
-84 -65 34 c-35 19 -85 40 -111 46 l-48 12 0 112 c0 86 -4 119 -18 146 -24 48
-75 80 -127 80 -27 0 -54 -8 -76 -23z m235 -620 c201 -92 290 -337 195 -534
-29 -61 -121 -153 -182 -182 -198 -95 -440 -7 -535 196 -24 51 -27 70 -27 158
0 87 3 107 27 157 49 104 153 195 257 225 72 20 197 11 265 -20z"/>
<path d="M1948 2179 c-392 -26 -773 -120 -1073 -264 -277 -133 -485 -321 -575
-519 -53 -117 -62 -176 -58 -411 3 -194 5 -214 26 -261 29 -64 102 -136 167
-166 l50 -23 993 -3 c545 -1 992 0 992 2 0 2 -12 28 -27 58 -24 46 -27 65 -28
143 0 106 19 157 85 229 l43 46 -46 0 c-25 0 -75 9 -113 21 -56 17 -77 31
-124 78 -78 77 -104 145 -98 256 6 98 34 161 103 224 61 56 124 83 207 89 l67
5 -38 44 c-103 116 -119 283 -41 406 l28 44 -106 7 c-127 7 -277 6 -434 -5z"/>
</g>
</svg>
